<?xml version="1.0" standalone="no"?>
<!DOCTYPE svg PUBLIC "-//W3C//DTD SVG 20010904//EN"
 "http://www.w3.org/TR/2001/REC-SVG-20010904/DTD/svg10.dtd">
<svg version="1.0" xmlns="http://www.w3.org/2000/svg"
 width="700.000000pt" height="700.000000pt" viewBox="0 0 700.000000 700.000000"
 preserveAspectRatio="xMidYMid meet">
<metadata>
Created by potrace 1.14, written by Peter Selinger 2001-2017
</metadata>
<g transform="translate(0.000000,700.000000) scale(0.100000,-0.100000)"
fill="#000000" stroke="none">
<path d="M3455 6993 c-152 -19 -321 -69 -460 -137 -465 -228 -769 -692 -785
-1199 -1 -45 -3 -572 -3 -1172 -1 -720 -5 -1089 -12 -1088 -11 1 -113 11 -183
17 -24 3 -46 6 -48 9 -3 2 0 24 6 48 6 24 13 55 16 69 3 14 15 63 26 110 12
47 21 101 22 121 0 62 -46 110 -119 122 -39 6 -253 56 -285 67 -14 4 -24 12
-23 17 1 6 4 21 7 34 2 13 20 88 40 167 45 176 47 193 28 231 -44 92 -534 289
-832 336 -25 4 -54 9 -64 11 -18 3 -37 6 -166 19 -98 11 -278 8 -308 -4 -39
-16 -64 -54 -67 -100 -1 -27 10 -55 43 -111 25 -41 52 -88 62 -105 9 -16 96
-160 192 -320 209 -345 1587 -2636 1634 -2715 26 -45 33 -69 38 -135 25 -318
172 -637 399 -866 189 -191 457 -340 691 -385 12 -2 32 -6 46 -9 130 -28 396
-26 540 4 421 89 781 367 970 750 67 136 112 279 136 431 3 25 8 351 10 725 2
374 3 711 4 749 l0 69 78 -74 c42 -41 104 -97 137 -124 33 -28 62 -52 65 -55
10 -11 147 -108 222 -158 74 -50 307 -173 378 -200 80 -31 227 -81 250 -86 14
-2 50 -11 82 -19 31 -9 80 -18 110 -22 29 -4 55 -8 59 -10 7 -5 127 -16 209
-20 96 -4 141 26 155 103 5 33 -47 144 -275 577 -26 50 -91 176 -145 280 -54
105 -124 240 -155 300 -32 61 -97 187 -145 280 -48 94 -118 229 -155 300 -37
72 -107 207 -155 300 -48 94 -116 224 -150 290 -34 66 -102 197 -150 290 -48
94 -109 211 -135 260 -26 50 -99 191 -163 315 l-115 225 -6 125 c-5 107 -17
203 -40 310 -24 109 -116 320 -186 425 -211 315 -529 531 -892 606 -97 20
-346 32 -433 22z m330 -483 c239 -61 440 -263 500 -505 88 -353 -103 -707
-450 -834 -107 -39 -280 -46 -395 -17 -75 19 -211 84 -255 121 -191 162 -278
343 -274 569 2 121 25 211 82 320 42 80 134 185 207 238 96 68 226 117 335
125 39 3 71 6 72 7 6 5 133 -13 178 -24z m1323 -1700 c50 -96 116 -224 147
-285 31 -60 102 -198 157 -305 56 -107 129 -249 163 -315 170 -326 286 -551
430 -830 48 -93 116 -224 150 -290 34 -66 109 -210 165 -320 57 -110 107 -205
111 -211 15 -19 0 -21 -70 -8 -462 88 -866 329 -1266 757 l-85 91 -1 60 c-3
398 -3 876 2 876 3 0 62 -116 131 -257 77 -156 135 -263 148 -271 59 -36 149
-12 171 46 20 48 12 80 -54 215 -36 72 -140 285 -232 472 l-166 340 0 200 c0
227 0 220 5 214 2 -2 44 -83 94 -179z m-4378 -281 c8 -1 35 -5 60 -10 25 -5
56 -11 70 -13 132 -22 393 -111 540 -184 44 -22 44 -25 -10 -246 -23 -92 -43
-180 -45 -196 -6 -46 32 -92 90 -112 38 -12 160 -43 215 -53 48 -9 122 -30
125 -35 2 -3 -4 -39 -15 -78 -10 -40 -18 -76 -19 -80 0 -4 -10 -49 -22 -101
-39 -170 -13 -210 146 -226 33 -4 76 -8 95 -10 30 -3 97 -10 200 -20 14 -2 30
-3 36 -4 8 -1 11 -181 11 -666 0 -366 -1 -665 -3 -665 -2 0 -32 48 -67 108
-35 59 -236 393 -447 742 -210 349 -390 649 -400 665 -9 17 -175 293 -369 614
l-351 583 72 -6 c40 -4 80 -7 88 -7z m3277 -108 c59 -24 67 -55 67 -263 0
-123 4 -188 11 -189 5 0 91 -2 190 -2 201 -2 234 -11 255 -70 15 -45 13 -765
-3 -796 -6 -13 -25 -34 -40 -45 -26 -19 -43 -21 -210 -23 -100 -1 -187 -2
-192 -2 -7 -1 -11 -70 -11 -191 -2 -293 32 -273 -467 -273 -358 -1 -384 1
-411 18 -49 32 -56 66 -56 267 l0 183 -182 -1 c-101 0 -195 3 -211 9 -15 5
-37 23 -50 40 -22 32 -22 35 -23 412 -1 411 0 417 53 452 23 16 54 18 218 19
l190 1 5 194 c6 216 10 231 69 257 32 15 82 17 403 16 262 0 374 -4 395 -13z
m-277 -2565 c100 -19 218 -69 290 -124 189 -142 298 -372 284 -602 -5 -87 -8
-106 -30 -174 -81 -248 -283 -426 -539 -477 -128 -25 -309 -2 -420 54 -28 14
-66 33 -85 43 -65 34 -192 172 -238 261 -220 423 24 930 488 1017 67 12 189
13 250 2z"/>
<path d="M3500 6286 c-218 -49 -374 -263 -356 -486 28 -338 380 -532 681 -376
147 76 248 243 249 411 0 56 -21 142 -50 202 -93 195 -309 297 -524 249z"/>
<path d="M3374 4012 c0 -162 -3 -192 -18 -218 -33 -56 -44 -58 -248 -59 -103
-1 -191 -4 -195 -8 -5 -5 -8 -414 -4 -457 1 -3 84 -5 186 -4 282 1 278 4 279
-273 l1 -193 232 0 233 0 0 28 c1 15 1 98 1 185 -1 247 3 251 259 254 96 0
183 2 192 2 15 1 17 22 17 231 0 209 -2 230 -17 231 -9 0 -96 2 -192 2 -246 3
-259 14 -259 213 0 60 0 142 0 182 l-1 72 -232 0 -233 0 -1 -188z"/>
<path d="M3598 1635 c-2 -2 -25 -5 -53 -8 -213 -23 -388 -212 -400 -430 -13
-216 111 -400 319 -473 201 -71 452 30 553 223 48 91 68 221 49 308 -35 160
-149 294 -296 348 -39 15 -165 38 -172 32z"/>
</g>
</svg>
