<?xml version="1.0" encoding="UTF-8" standalone="no"?><!DOCTYPE svg PUBLIC "-//W3C//DTD SVG 1.1//EN" "http://www.w3.org/Graphics/SVG/1.1/DTD/svg11.dtd"><svg width="100%" height="100%" viewBox="0 0 199 199" version="1.1" xmlns="http://www.w3.org/2000/svg" xmlns:xlink="http://www.w3.org/1999/xlink" xml:space="preserve" xmlns:serif="http://www.serif.com/" style="fill-rule:evenodd;clip-rule:evenodd;stroke-linecap:round;stroke-linejoin:round;stroke-miterlimit:1.5;"><g id="Kruis-met-Elips" serif:id="Kruis met Elips"></g><g id="Symmetrisch"><g id="Nieuw-Logo" serif:id="Nieuw Logo"><circle cx="147.71" cy="51.564" r="21.26" style="fill:currentColor;stroke:currentColor;stroke-width:0.24px;"/><path id="Rechter-Helft--Spiegelen-en--90-draaien-" serif:id="Rechter Helft (Spiegelen en -90 draaien)" d="M109.106,72.963c-0.084,0.087 -0.148,0.151 -0.189,0.192c-5.081,5.081 -6.364,8.195 -7.527,9.358c-2.175,2.175 -5.614,7.754 -7.121,9.562c-4.813,5.775 -13.215,10.364 -19.327,18.513c-6.511,8.681 -6.554,8.632 -6.917,9.358c-0.6,1.201 -1.226,2.043 -1.754,2.63c5.8,1.776 10.023,7.176 10.023,13.555c-0,3.621 -1.361,6.926 -3.598,9.432c-0.059,0.095 -0.131,0.193 -0.218,0.293c-1.755,2.025 -3.768,4.575 -6.16,7.14l-0.15,0.16l-0.21,0.222c-0.226,0.24 -0.436,0.488 -0.629,0.746c-2.775,3.413 -4.439,7.765 -4.439,12.502c0,10.951 8.891,19.843 19.843,19.843c10.951,-0 19.842,-8.892 19.842,-19.843c0,-1.96 -0.284,-3.854 -0.815,-5.643c-0.128,-0.665 -0.299,-1.514 -0.565,-2.797c-0.77,-3.708 0.436,-7.557 1.008,-9.026c2.546,-7.127 9.36,-12.233 17.358,-12.233c9.717,-0 17.687,7.538 18.376,17.081c0.067,0.567 0.108,1.065 0.196,1.662c0.055,0.791 0.186,1.562 0.387,2.304c1.385,5.125 6.071,8.902 11.632,8.902c6.649,-0 12.047,-5.399 12.047,-12.048c-0,-4.992 -3.043,-9.279 -7.373,-11.105c-0.689,-0.333 -0.294,-0.283 -3.813,-1.127c-0.152,-0.037 -0.305,-0.075 -0.459,-0.115c-7.345,-1.26 -12.941,-7.665 -12.941,-15.366c0,-8.605 6.986,-15.591 15.591,-15.591c3.166,0 6.113,0.946 8.573,2.57c0.717,0.38 1.611,0.926 2.984,1.573c0.115,0.053 0.24,0.104 0.376,0.15c2.305,1.346 4.986,2.117 7.845,2.117c8.605,0 15.591,-6.985 15.591,-15.59c-0,-8.605 -6.986,-15.591 -15.591,-15.591c-2.302,0 -4.488,0.5 -6.455,1.397c-5.979,3.611 -12.986,5.69 -20.474,5.69c-15.099,-0 -28.24,-8.451 -34.947,-20.877Z" style="fill:currentColor;stroke:currentColor;stroke-width:0.24px;"/><path id="Linker-Helft--Bron-" serif:id="Linker Helft (Bron)" d="M125.358,89.423c-0.087,0.084 -0.151,0.148 -0.191,0.189c-5.082,5.081 -8.196,6.364 -9.359,7.527c-2.174,2.175 -7.754,5.614 -9.561,7.121c-5.776,4.813 -10.365,13.215 -18.514,19.327c-8.681,6.511 -8.632,6.554 -9.358,6.917c-1.201,0.6 -2.043,1.226 -2.63,1.755c-1.776,-5.801 -7.176,-10.024 -13.555,-10.024c-3.62,0 -6.926,1.361 -9.432,3.598c-0.095,0.059 -0.192,0.131 -0.292,0.218c-2.026,1.755 -4.576,3.768 -7.141,6.16l-0.159,0.15l-0.223,0.21c-0.239,0.226 -0.488,0.436 -0.745,0.63c-3.414,2.774 -7.765,4.438 -12.503,4.438c-10.951,-0 -19.842,-8.891 -19.842,-19.843c-0,-10.951 8.891,-19.842 19.842,-19.842c1.96,-0 3.854,0.285 5.643,0.815c0.665,0.128 1.515,0.299 2.797,0.566c3.708,0.769 7.558,-0.437 9.026,-1.009c7.127,-2.546 12.234,-9.36 12.234,-17.357c-0,-9.718 -7.539,-17.688 -17.081,-18.377c-0.568,-0.067 -1.065,-0.108 -1.662,-0.196c-0.792,-0.055 -1.562,-0.186 -2.305,-0.387c-5.125,-1.385 -8.901,-6.071 -8.901,-11.632c-0,-6.649 5.398,-12.047 12.047,-12.047c4.992,0 9.279,3.043 11.106,7.374c0.332,0.688 0.282,0.293 1.126,3.812c0.037,0.152 0.075,0.305 0.116,0.459c1.259,7.345 7.664,12.941 15.365,12.941c8.605,-0 15.591,-6.986 15.591,-15.591c-0,-3.166 -0.946,-6.112 -2.57,-8.573c-0.379,-0.716 -0.926,-1.611 -1.572,-2.984c-0.054,-0.115 -0.105,-0.24 -0.151,-0.376c-1.346,-2.305 -2.117,-4.985 -2.117,-7.845c-0,-8.604 6.986,-15.59 15.59,-15.59c8.605,-0 15.591,6.986 15.591,15.59c-0,2.302 -0.5,4.488 -1.397,6.455c-3.611,5.979 -5.69,12.986 -5.69,20.474c0,15.099 8.451,28.24 20.877,34.947Z" style="fill:currentColor;stroke:currentColor;stroke-width:0.24px;"/></g></g><rect x="0" y="-0" width="198.425" height="198.425" style="fill:none;"/></svg>