<?xml version="1.0" encoding="iso-8859-1"?>
<!-- Generator: Adobe Illustrator 19.0.0, SVG Export Plug-In . SVG Version: 6.00 Build 0)  -->
<svg version="1.1" id="Layer_1" xmlns="http://www.w3.org/2000/svg" xmlns:xlink="http://www.w3.org/1999/xlink" x="0px" y="0px"
	 viewBox="0 0 512 512" style="enable-background:new 0 0 512 512; fill:black" xml:space="preserve">
<g>
	<g>
		<g>
			<path d="M493.311,354.483L366.258,108.851V102.4c0-56.465-45.935-102.4-102.4-102.4s-102.4,45.935-102.4,102.4v161.263
				l-18.261-1.783l5.564-23.748c1.075-4.591-1.775-9.182-6.366-10.257l-25.182-5.888l6.537-26.812
				c0.905-3.695-0.759-7.535-4.062-9.429c-27.016-15.445-57.745-23.612-88.875-23.612h-4.54c-3.072,0-5.914,1.664-7.424,4.335
				c-1.519,2.679-1.476,5.956,0.119,8.602l142.618,237.116C162.977,467.447,208.263,512,263.858,512
				c56.465,0,102.4-45.935,102.4-102.4v-99.089c27.435,27.87,67.345,55.151,119.262,56.422h0.205c2.935,0,5.675-1.51,7.236-4.002
				C494.557,360.371,494.693,357.163,493.311,354.483z M161.458,378.863L41.582,179.558c22.315,1.493,44.169,7.612,64.034,17.946
				l-7.023,28.8c-0.546,2.219-0.179,4.548,1.015,6.494c1.195,1.937,3.115,3.319,5.333,3.84l25.259,5.914l-5.837,24.926
				c-0.555,2.389-0.06,4.915,1.374,6.912c1.434,1.997,3.661,3.277,6.101,3.524l29.619,2.893V378.863z M263.858,34.133
				c28.237,0,51.2,22.972,51.2,51.2c0,28.237-22.963,51.2-51.2,51.2s-51.2-22.963-51.2-51.2
				C212.658,57.105,235.621,34.133,263.858,34.133z M263.858,477.867c-28.237,0-51.2-22.963-51.2-51.2
				c0-28.228,22.963-51.2,51.2-51.2s51.2,22.972,51.2,51.2C315.058,454.903,292.095,477.867,263.858,477.867z M332.125,281.6
				c0,4.719-3.814,8.533-8.533,8.533h-25.6v25.6c0,4.719-3.814,8.533-8.533,8.533h-51.2c-4.719,0-8.533-3.814-8.533-8.533v-25.6
				h-25.6c-4.719,0-8.533-3.814-8.533-8.533v-51.2c0-4.71,3.814-8.533,8.533-8.533h25.6v-25.6c0-4.71,3.814-8.533,8.533-8.533h51.2
				c4.719,0,8.533,3.823,8.533,8.533v25.6h25.6c4.719,0,8.533,3.823,8.533,8.533V281.6z M366.258,285.244v-69.257l17.946,36.599
				c1.468,3.021,4.506,4.77,7.663,4.77c1.254,0,2.543-0.273,3.746-0.87c4.241-2.065,5.982-7.185,3.9-11.418l-33.254-67.84v-31.215
				L471.09,348.681C424.054,342.255,388.752,311.808,366.258,285.244z"/>
			<path d="M263.858,119.469c18.825,0,34.133-15.309,34.133-34.133s-15.309-34.133-34.133-34.133s-34.133,15.309-34.133,34.133
				S245.034,119.469,263.858,119.469z"/>
			<path d="M263.858,392.536c-18.825,0-34.133,15.309-34.133,34.133c0,18.824,15.309,34.133,34.133,34.133
				s34.133-15.309,34.133-34.133C297.991,407.845,282.683,392.536,263.858,392.536z"/>
			<path d="M280.925,230.403v-25.6h-34.133v25.6c0,4.719-3.814,8.533-8.533,8.533h-25.6v34.133h25.6
				c4.719,0,8.533,3.814,8.533,8.533v25.6h34.133v-25.6c0-4.719,3.814-8.533,8.533-8.533h25.6v-34.133h-25.6
				C284.739,238.936,280.925,235.121,280.925,230.403z"/>
		</g>
	</g>
</g>
</svg>